<?xml version="1.0" encoding="utf-8"?>
<!-- Generator: Adobe Illustrator 23.0.2, SVG Export Plug-In . SVG Version: 6.00 Build 0)  -->
<svg version="1.1" id="Capa_1" xmlns="http://www.w3.org/2000/svg" xmlns:xlink="http://www.w3.org/1999/xlink" x="0px" y="0px"
	 viewBox="0 0 1008 612" style="enable-background:new 0 0 1008 612;" xml:space="preserve">
<style type="text/css">
	.st0{fill:transparent;
			-webkit-animation: anima1 10s forwards 0s;
			-moz-animation: anima1 10s forwards 0s;
			-o-animation: anima1 10s forwards 0s;
			animation: anima1 10s forwards 0s;
	}
	.st1{fill:none;
	stroke:transparent;
	stroke-width:3;
	stroke-miterlimit:10;
			-webkit-animation: barra2 10s forwards 4s;
			-moz-animation: barra2 10s forwards 4s;
			-o-animation: barra2 10s forwards 4s;
			animation: barra2 10s forwards 4s;

	}
	.st2{fill:transparent;
			-webkit-animation: liston 1s forwards 0s;
			-moz-animation: liston 1s forwards 0s;
			-o-animation: liston 1s forwards 0s;
			animation: liston 1s forwards 0s;
	}
	.st3{fill:transparent;
			-webkit-animation: lichis 5s forwards 2s;
			-moz-animation: lichis 5s forwards 2s;
			-o-animation: lichis 5s forwards 2s;
			animation: lichis 5s forwards 2s;
	}
	.st4{fill:transparent;
			-webkit-animation: sazon 5s forwards 4s;
			-moz-animation: sazon 5s forwards 4s;
			-o-animation: sazon 5s forwards 4s;
			animation: sazon 5s forwards 4s;
	}
		@-webkit-keyframes anima1 {
			from {
				fill:transparent;
			}

			to {
				fill:#f00;
			}
		}
		@-keyframes anima1 {
			from {
				fill:transparent;
			}

			to {
				fill:#f00;
			}
		}

		@-webkit-keyframes liston {
			from {
				fill:transparent;
			}

			to {
				fill:url(#liston_1_);
			}
		}
		@-keyframes liston {
			from {
				fill:transparent;
			}

			to {
				fill:url(#liston_1_);
			}
		}

				@-webkit-keyframes lichis {
			from {
				fill:transparent;
			}

			to {
				fill:url(#lichis_2_);
			}
		}
		@-keyframes lichis {
			from {
				fill:transparent;
			}

			to {
				fill:url(#lichis_2_);
			}
		}

		@-webkit-keyframes barra2 {
			from {
				stroke:transparent;
			}

			to {
				stroke:#E30613;
			}
		}
		@-keyframes barra2 {
			from {
				stroke:transparent;
			}

			to {
				stroke:#E30613;
			}
		}

		@-webkit-keyframes sazon {
			from {
				fill:transparent;
			}

			to {
				fill:#FFFFFF;
			}
		}
		@-keyframes sazon {
			from {
				fill:transparent;
			}

			to {
				fill:#FFFFFF;
			}
		}
</style>
<g id="lichis_1_">
	<path class="st0" d="M553.4,451.8c-5.7,0-11.7-0.5-17.9-1.4c-57.1-8.5-90.6-17.8-239-88.3c-5.3,6.8-26.4,31.3-59,33.5
		c-1.5,0.1-3,0.2-4.5,0.2c-19.3,0-34.7-8.2-39.4-21c-2.5-6.9-3.8-21,16.2-37.8c0.4-0.4,11.6-9.9,35-9.9c14.2,0,29.9,3.5,46.6,10.4
		c2-3.4,6.6-12,13.3-28.3c-9.6,2.7-19.3,4.2-29,4.2l-0.6,0c-27.6,0-48.2-7.7-61.3-23c-14.2-16.5-16.7-39.5-14.3-55.4
		c1.8-12.2,9.3-26.6,19.6-37.6c9-9.7,24.3-21.3,45.9-21.3c3.9,0,7.9,0.4,11.9,1.2c0.4,0.1,8.4,1.8,16.5,7.2
		c10.9,7.2,16.7,17.6,16.7,29.8c0,1.4-1.1,2.5-2.5,2.5h-3.5c-1.4,0-2.5-1.1-2.5-2.5c0-1-0.4-25.2-28.1-26.9c-0.7,0-1.4-0.1-2.1-0.1
		c-27.4,0-49.5,34.3-51.2,57.4c-0.7,9.8,0,28.4,12.5,42.3c9.6,10.6,24.2,16.3,43.4,16.9c0.8,0,1.6,0,2.4,0c9.8,0,20.1-2,30.6-5.9
		c5.2-13.5,10.7-29,16.3-46.2c20.6-63.5,37.7-87.1,63.1-87.1c2.2,0,4.4,0.2,6.7,0.5c6.2,1,10.8,4,13.6,8.9
		c8.6,15.3-3.1,44.4-3.6,45.6c-0.4,0.9-1.3,1.5-2.3,1.5c0,0-9.7,0.2-9.8,0.2c-0.8,0-1.6-0.4-2-1.1c-0.5-0.7-0.6-1.6-0.3-2.3
		c3.4-8.8,11.2-33.6,6.4-42.7c-0.8-1.6-2-2.5-3.6-2.9c-0.7-0.2-1.3-0.2-2-0.2c-15,0-29.8,42.2-42.3,83.4c-2.5,8.4-5.1,16.3-7.7,23.6
		c19.4-14.9,33.8-33.1,41.2-46c0.4-0.8,1.2-1.2,2.1-1.3c0,0,9.5-0.2,9.6-0.2c0.9,0,1.7,0.5,2.2,1.3c0.5,0.8,0.4,1.8-0.1,2.6
		c-0.9,1.5-23.4,37-61,59.5c-10.3,25.4-19.2,38.9-25.8,48.8c12.3,5.3,63.6,27.9,112.7,53.1c38.5,19.7,93,43.3,133.8,43.3
		c9.6,0,18-1.3,25.1-3.9c19-7,24.8-26.5,22.1-41.8c-4.2-23.6-23.7-32-40.5-32c-0.6,0-1.2,0-1.8,0c-0.1,0-0.2,0-0.3,0
		c-0.9,0-1.7-0.5-2.1-1.2c-0.5-0.8-0.5-1.7-0.1-2.5s1.2-1.3,2.1-1.3l0.1,0l0.4,0c1.4-0.2,5.3-0.6,10.2-0.6
		c15.2,0,41.4,3.9,45.6,29.8c2.6,16.2-1.6,32.2-11.5,44C597.7,440.4,582,451.8,553.4,451.8C553.4,451.8,553.4,451.8,553.4,451.8z
		 M226.4,340.5c-5.8,0-10,1.2-12.6,3.7c-7,6.8-9.3,18-5.6,27.3c2.3,5.6,8.7,15,26.2,15c0,0,0,0,0,0c1.2,0,2.4,0,3.6-0.1
		c22.9-1.7,37.8-23,42.1-30C272,352.6,244.6,340.5,226.4,340.5z M372,353.5c-1.1,0-2.3-0.1-3.3-0.2c-7.4-0.8-12.2-3.4-14.4-7.7
		c-3.2-6.3,0.9-13.4,1.1-13.7c0,0,0-0.1,0.1-0.1l27.4-41.6c0.4-0.7,1.2-1.1,2-1.1c0,0,0.5,0,1.2,0c5.6,0,18.9,0.9,20.9,8.9
		c2,8.2-19.7,36.5-26.7,45.4c0,0,0,0.1,0,0.1c0.1,0,0.4,0,0.6,0c2.1,0,6.6-0.9,16.5-5.5c5.1-2.5,13.7-7.4,16.6-10.3
		c-0.1-2.5,0.1-8.4,4.4-15.2c7.2-11.4,21.9-20,43.7-25.7c0.6-0.1,14.2-3.2,28-3.2c16.4,0,26.1,4.3,28.8,12.7c0,0.1,0,0.1,0.1,0.2
		c0.1,0.3,0.7,3.4-1.6,6.6c-2.7,3.8-8.3,6.1-16.5,6.8c-1.6,0.1-3,0.2-4.4,0.2c-6.3,0-10.8-1.4-13.5-4.2c-2.4-2.6-2.3-5.3-2.3-5.6
		c0-0.3,0.1-0.6,0.2-0.8c0.3-0.7,3.3-7.1,16.3-7.1c1.2,0,2.4,0.1,3.7,0.2c-0.3-0.3-1.8-1.6-8.2-1.6c-15,0-29.4,9.4-34.9,16.1
		c-0.9,1.1-1.9,2.3-3,3.5c-8.2,9.3-15.1,18.3-8.9,25.6c2.7,3.1,9.6,5,18.7,5c17.3,0,42.3-6.9,59.4-22.4c2.1-4,19.5-35.8,50.2-67.1
		c19.2-19.6,39.9-35.3,61.4-46.5c26.9-14.1,55.3-21.2,84.2-21.2c25,0,50.8,5.3,76.7,15.9c2,0.8,7.6,4.8,8.2,5.3
		c6.6,4.8,7.1,5.8,6.8,7.5c-0.2,1.2-1.3,2.1-2.6,2.1c-0.6,0-1.4-0.2-3.2-1.1c-21.4-10.5-50.1-22.5-82.9-22.5
		c-53.6,0-102.3,32.8-144.9,97.4c9-3.9,24.1-9.5,35.4-9.5c5.9,0,15.7,1.7,16.2,13.1c0.3,1.8,0.1,8.4-11.2,22.8
		c-8,10.2-10.9,16.5-12,19.4c0.1,0,0.2,0,0.4,0c3.7,0,13.3-2.4,36.3-18l25.3-37.8c0.4-0.7,1.2-1.1,2-1.1c0,0,0.5,0,1.3,0
		c5.8,0,19.5,1,20.6,10.3c0.1,1,0.2,7-12.2,22.2c-8.1,10-12.1,17.5-13.9,21.2c0.2,0,0.4,0,0.6,0c3.8,0,12-1.4,25.8-10.4
		c-0.8-2.7-1.5-7.5,1.3-12.2c3.9-6.5,13.1-10,27.2-10.5c0,0,0.1,0,0.1,0c0.4,0,0.8,0.1,1.2,0.3c1.6,0.9,3.2,2.5,2.8,4.6
		c-0.4,2.8-3.7,3.8-6.6,4.4c-12.9,2.6-15.9,6.3-16.6,8.3c-0.8,2.2,0.8,4.1,0.8,4.2c0.1,0.1,0.1,0.1,0.2,0.2
		c0.2,0.3,6.2,8.7,22.2,10.1c1.9,0.2,3.9,0.3,5.7,0.3c13.1,0,20.6-4.5,20.7-7.7c0.1-3.7-4.6-9.1-14.1-16.1
		c-6.9-5-13.8-11.2-12.9-19.1c0.9-7.3,13.5-15.1,35.4-15.1c1.7,0,3.5,0,5.2,0.1c25.5,1.3,30.3,9.4,30.8,14.1c0.2,1.9-0.6,4-2.1,5.8
		c-2.9,3.4-8,5.6-14,6.1c-1,0.1-2,0.1-3,0.1c-7.9,0-16.4-2.6-17.4-7.5c-0.2-1-0.1-2.4,1.3-4.1c2.2-2.6,7.8-5.4,14.3-6
		c-2-1-5-1.9-9.5-1.9l-0.5,0c-12.7,0.2-16.6,3.6-16.9,4.4c0.1,2,0.6,5.5,13.4,14.1c13.1,8.8,19.1,16.1,18.4,22.1
		c-0.8,6.9-7.7,18.6-44.4,18.6l-0.8,0c-0.2,0-0.9,0-2,0c-6.7,0-23.2-1.1-35.5-11.3c-5.5,3.6-24,14.6-41.5,14.6
		c-1.4,0-2.8-0.1-4.2-0.2c-7.9-0.9-12.8-3.4-14.6-7.6c-0.6-1.3-0.7-2.7-0.7-3.9c-8.8,5.6-24.9,14.4-39.5,14.4
		c-2.4,0-4.6-0.2-6.7-0.7c-5.8-1.3-9.5-4-11-8c-3.3-9,5.7-21.2,10.1-27c0.5-0.6,0.8-1.1,1.1-1.5c0.5-0.7,1.3-1.6,2.2-2.8
		c8.6-10.7,10.2-14.6,10-16c-0.1,0-0.4-0.1-0.9-0.1c-1.4,0-4.3,0.5-10,2.7c-28.2,11-50.8,52.7-51,53.2c-0.4,0.8-1.2,1.3-2,1.3
		c0,0-1.2,0.1-2.8,0.1c-6.7,0-15.4-1.1-18.5-6.4c-0.8-1.3-1.1-2.7-1.2-4.2c-8.7,5-26.7,13.7-46.4,14.7c-3.1,0.2-6.1,0.2-8.9,0.2
		c-22.4,0-37.4-4.9-43.9-14.3C409.9,340.2,389.2,353.5,372,353.5z M408,283.6c-10.4,0-18-4.1-18-9.7s7.6-9.7,18-9.7s18,4.1,18,9.7
		S418.4,283.6,408,283.6z M692.3,271.6c-10.4,0-18-4.1-18-9.7s7.6-9.7,18-9.7s18,4.1,18,9.7S702.7,271.6,692.3,271.6z M305,242.2
		c-0.2,0-0.5,0-0.7-0.1l-4.3-1.2c-0.8-0.2-1.4-0.8-1.7-1.5s-0.2-1.6,0.3-2.3c0,0,2.2-3.3,2.1-6.7c0-0.8,0.3-1.6,1-2
		c0.4-0.3,1-0.5,1.5-0.5c0.2,0,0.5,0,0.7,0.1l3.5,1c1.3,0.4,2,1.6,1.8,2.9l-1.7,8.3c-0.1,0.7-0.6,1.3-1.1,1.6
		C305.9,242.1,305.5,242.2,305,242.2z"/>
	<path class="st0" d="M388.7,167.3c2.1,0,4.2,0.2,6.4,0.5c27.3,4.2,8,51.1,8,51.1l-9.7,0.2c0,0,17.5-45.1,1-48.9
		c-0.9-0.2-1.7-0.3-2.5-0.3c-15.3,0-28.7,32.6-44.7,85.2c-3.6,11.9-7.1,22.2-10.5,31.2c22-15.1,39.5-35.8,48.5-51.6l9.5-0.2
		c0,0-22.9,36.7-60.9,59.1c-11.2,27.9-20.8,41.5-27.5,51.6c0,0,58.7,25.2,115.3,54.2c45.3,23.2,96.6,43.6,134.9,43.6
		c9.6,0,18.3-1.3,26-4.1c37.8-13.8,31.9-78.6-19.3-78.6c-0.6,0-1.3,0-1.9,0c0.8-0.1,4.9-0.6,10.4-0.6c14.5,0,39.2,3.5,43.1,27.7
		c5,30.9-15.2,61.9-61.4,61.9c-5.5,0-11.3-0.4-17.6-1.4c-58.7-8.7-93-19-240.1-89c0,0-22,31.7-58.4,34.1c-1.5,0.1-2.9,0.1-4.4,0.1
		c-33.8,0-54.7-26.5-21.5-54.3c0,0,10.6-9.3,33.4-9.3c12.3,0,28.1,2.7,47.7,11c0,0,6-9,16.6-35.4c-10.4,3.5-21.5,5.6-33.3,5.7
		c-0.2,0-0.4,0-0.6,0c-71.1,0-76.6-52.5-73.1-75.5c3.2-21,26.3-56.7,63-56.7c3.7,0,7.5,0.4,11.4,1.1c0,0,31.1,6.7,31.1,34.6h-3.5
		c0,0,0-27.5-30.4-29.4c-0.8,0-1.5-0.1-2.3-0.1c-29.4,0-52,35.9-53.6,59.8c-1.7,24.5,7.6,60.2,58.4,61.9c0.8,0,1.7,0,2.5,0
		c11.1,0,22.1-2.4,32.5-6.4c4.8-12.3,10.4-27.8,16.8-47.4C348.2,190.3,364.9,167.3,388.7,167.3 M234.5,389c1.2,0,2.5,0,3.8-0.1
		c29.1-2.2,45.5-33.6,45.5-33.6S248.7,338,226.4,338c-6,0-11,1.2-14.3,4.4C197.3,356.7,201.6,389,234.5,389 M719.7,186.4
		c23.3,0,48.6,4.6,75.8,15.7c2.4,0.9,15,10,13.3,10c-0.3,0-1-0.3-2.1-0.8c-21.4-10.5-50.6-22.7-84-22.7
		c-45.9,0-99.6,23.1-151.7,105.7c0,0,25.6-12.8,42.2-12.8c7.7,0,13.4,2.8,13.7,10.9c0,0,1.4,5.6-10.7,21c-12.1,15.4-13,22.4-13,22.4
		s0.7,1,3.4,1c4.6,0,15-2.9,38.1-18.7l25.6-38.2c0,0,0.4,0,1.1,0c4,0,17.2,0.6,18.2,8.1c0,0,0.7,5.2-11.7,20.3
		c-12.3,15.1-15.4,24.7-15.4,24.7s1.3,0.6,4.1,0.6c4.8,0,14-1.9,28.8-11.8c0,0-9.6-20,25.6-21.2c0,0,5.1,2.8-3,4.4
		c-26.7,5.4-17.2,16.5-17.2,16.5s6.5,9.6,24,11.2c2.1,0.2,4,0.3,5.9,0.3c14.1,0,23-5,23.2-10.1c0.2-5.8-7.5-12.6-15.1-18.2
		c-7.7-5.6-12.6-10.8-11.9-16.8c0.6-5.6,11.9-12.9,32.9-12.9c1.6,0,3.3,0,5.1,0.1c24.3,1.2,28.1,8.7,28.5,11.9
		c0.3,3.1-4.2,8.4-13.8,9.1c-1,0.1-1.9,0.1-2.8,0.1c-8.2,0-14.4-2.7-14.9-5.5c-0.4-2.7,7.2-7.2,15.9-7.2c1.1,0,2.2,0.1,3.3,0.2
		c0,0-2.3-7-15.5-7c-0.2,0-0.4,0-0.6,0c-13.7,0.2-19.6,4.2-19.4,7c0.2,2.8,0.7,6.8,14.5,16.1c13.8,9.3,17.8,15.6,17.3,19.7
		c-0.5,4.2-4.3,16.4-41.9,16.4c-0.3,0-0.6,0-0.9,0c0,0-0.7,0-1.9,0c-5.7,0-23.3-1-35.3-11.9c0,0-21.8,15.2-41.7,15.2
		c-1.3,0-2.6-0.1-3.9-0.2c-20.8-2.3-10.5-15.6-10.5-15.6s-24.2,18.4-44.5,18.4c-2.1,0-4.2-0.2-6.2-0.6c-21.1-4.7-1.9-27.6,1.7-32.7
		c3-4.2,19.8-22.8,9.3-22.8c-2.3,0-5.8,0.9-11,2.9c-29.4,11.5-52.3,54.3-52.3,54.3s-1,0.1-2.6,0.1c-6.5,0-22.3-1.2-15.6-13.6
		c0,0-23.9,16.3-50.7,17.7c-3,0.2-6,0.2-8.8,0.2c-22.1,0-38-4.9-43.1-15.4c0,0-25.6,19.1-45.5,19.1c-1,0-2.1-0.1-3.1-0.2
		c-20.3-2.3-11.4-17.7-11.4-17.7l27.4-41.6c0,0,0.4,0,1.1,0c3.9,0,16.9,0.5,18.5,7c1.9,7.7-26.4,43.5-26.4,43.5s-2.1,4,2.7,4
		c2.8,0,8.1-1.4,17.6-5.7c0,0,15-7.5,18.2-11.7c0,0-4.9-26,46.1-39.3c0,0,13.7-3.1,27.4-3.1c11.8,0,23.6,2.3,26.4,11
		c0,0,2.1,8.7-15.9,10.3c-1.5,0.1-2.9,0.2-4.2,0.2c-13.7,0-13.3-7.2-13.3-7.2s2.3-5.6,14-5.6c1.6,0,3.4,0.1,5.4,0.4
		c0,0,5.2-6.8-9.9-6.8c-15.1,0-30.5,9.3-36.8,17c-6.3,7.7-21.3,21.3-11.9,32.3c3.3,3.8,10.9,5.8,20.6,5.8c18.2,0,43.8-7.2,61.4-23.3
		C525.9,320.3,594.6,186.4,719.7,186.4 M303.2,230.4l3.5,1l-1.7,8.3l-4.3-1.2C300.7,238.5,303.3,234.6,303.2,230.4 M394.7,234.5
		L394.7,234.5 M692.3,254.7c8.6,0,15.5,3.2,15.5,7.2s-6.9,7.2-15.5,7.2c-8.6,0-15.5-3.2-15.5-7.2S683.7,254.7,692.3,254.7
		 M408,266.7c8.6,0,15.5,3.2,15.5,7.2s-6.9,7.2-15.5,7.2s-15.5-3.2-15.5-7.2S399.4,266.7,408,266.7 M561.3,360.3c-0.1,0-0.1,0-0.1,0
		c0,0,0,0,0,0C561.2,360.3,561.2,360.3,561.3,360.3 M388.7,162.3c-14,0-25.3,6.8-35.8,21.4c-9.8,13.7-19.2,35.1-29.7,67.5
		c-5.5,16.7-10.8,31.8-15.9,45c-9.8,3.5-19.5,5.3-28.6,5.3c-0.8,0-1.6,0-2.3,0c-18.6-0.6-32.6-6-41.7-16.1
		c-11.9-13.2-12.6-31-11.9-40.4c1.5-22.2,22.7-55.1,48.7-55.1c0.6,0,1.3,0,1.9,0.1c10.6,0.7,18.1,4.9,22.3,12.5
		c3.3,5.9,3.4,11.9,3.4,12c0,2.8,2.2,5,5,5h3.5c2.8,0,5-2.2,5-5c0-13.2-6.1-24.2-17.8-31.9c-8.5-5.6-16.9-7.5-17.3-7.6
		c0,0-0.1,0-0.1,0c-4.1-0.8-8.3-1.2-12.4-1.2c-22.5,0-38.4,12-47.7,22.1c-10.5,11.3-18.3,26.2-20.2,38.9c-1.2,8-3.7,35.8,14.8,57.4
		c13.6,15.8,34.9,23.8,63.2,23.8l0.6,0c8.3-0.1,16.5-1.1,24.7-3c-4.7,11-8.1,17.8-10.2,21.5c-16.3-6.4-31.6-9.7-45.5-9.7
		c-23.7,0-35.6,9.5-36.7,10.5c-21.2,17.7-19.7,33-17,40.5c5,13.7,21.4,22.6,41.7,22.6c1.6,0,3.1-0.1,4.7-0.2
		c31.5-2.1,52.5-24.2,59.6-32.8c147.2,69.9,180.7,79.2,237.9,87.7c6.3,0.9,12.5,1.4,18.3,1.4c29.6,0,45.8-11.8,54.3-21.7
		c10.4-12.3,14.8-29,12.1-46c-2-12.2-9-21.4-20.4-26.7c-7.6-3.5-16.8-5.2-27.6-5.2c-5.1,0-9,0.4-10.5,0.6c-0.1,0-0.2,0-0.3,0
		c-1.8,0.1-3.4,1.1-4.3,2.7c-0.8,1.5-0.7,3.4,0.2,4.9c0.9,1.5,2.5,2.4,4.3,2.4c0.1,0,0.2,0,0.4,0c0.6,0,1.1,0,1.7,0
		c24.2,0,35.5,15.5,38.1,30c3.6,20.3-8.1,34.5-20.5,39c-6.8,2.5-15,3.7-24.2,3.7c-40.3,0-94.4-23.4-132.7-43
		c-46.1-23.6-94.2-45-110.1-52c6.4-9.6,14.6-22.9,24-46c37-22.4,59.3-56.9,61.1-59.8c0.5-0.8,0.8-1.8,0.8-2.8c0-2.8-2.2-5-5-5
		c0,0,0,0,0,0c0,0-0.1,0-0.1,0c0,0,0,0,0,0c0,0,0,0,0,0l0,0c0,0,0,0,0,0l-9.5,0.2c-1.8,0-3.4,1-4.2,2.5c-6.3,11.1-18,26.3-33.8,39.8
		c1.7-5,3.3-10.1,4.9-15.5c8.9-29.4,15.8-48.4,22.3-61.6c8.2-16.6,14.1-20.1,17.6-20.1c0.5,0,0.9,0.1,1.4,0.2c0.7,0.2,1.4,0.5,2,1.6
		c3.7,6.9-1.6,27.9-6.5,40.6c-0.6,1.6-0.4,3.3,0.6,4.7c0.9,1.3,2.5,2.1,4.1,2.1c0,0,0.1,0,0.1,0l9.7-0.2c2,0,3.8-1.3,4.5-3.1
		c0.1-0.3,3.2-7.8,5.2-17.1c2.9-13.2,2.3-23.6-1.7-30.6c-3.2-5.6-8.5-9.1-15.4-10.2C393.4,162.5,391,162.3,388.7,162.3L388.7,162.3z
		 M234.5,384c-16.1,0-21.9-8.4-23.9-13.5c-3.3-8.3-1.2-18.6,5-24.6c2-1.9,5.8-3,10.8-3c16.1,0,40,9.8,50.2,14.4
		c-5.5,8.2-19.1,25-38.7,26.4C236.8,384,235.6,384,234.5,384L234.5,384z M719.7,181.4C719.7,181.4,719.7,181.4,719.7,181.4
		c-29.4,0-58.1,7.2-85.4,21.5c-21.7,11.3-42.6,27.1-62,46.9c-30.5,31.1-47.5,61.8-50.4,67.3c-16.6,14.8-40.7,21.5-57.4,21.5
		c-9.8,0-15.1-2.2-16.8-4.1c-4.5-5.2-0.3-11.8,8.9-22.3c1.1-1.3,2.2-2.5,3.1-3.6c3.6-4.3,11.6-10.2,21-13.2c-1.4,1.5-2,2.8-2.2,3.1
		c-0.2,0.5-0.3,1.1-0.4,1.6c0,0.7-0.1,4.2,3,7.5c3.2,3.3,8.3,5,15.3,5c1.5,0,3-0.1,4.6-0.2c9-0.8,15.2-3.4,18.3-7.8
		c2.9-4,2.2-7.9,2-8.6c0-0.1-0.1-0.3-0.1-0.4c-3.1-9.6-13.6-14.5-31.2-14.5c-14.1,0-27.9,3.1-28.5,3.2c-0.1,0-0.1,0-0.2,0
		c-22.4,5.8-37.6,14.9-45.1,26.8c-4.1,6.5-4.8,12.1-4.8,15.4c-2.8,2.3-9.5,6.3-15.2,9.1c-4.5,2.1-7.8,3.3-10.2,4.1
		c2.7-3.6,6.4-8.6,10.1-13.9c13.1-19.1,14.1-25,13.2-28.7c-2.3-9.4-15.6-10.8-23.3-10.8c-0.8,0-1.3,0-1.3,0c-1.6,0.1-3.1,0.9-4,2.2
		l-27.4,41.6c-0.1,0.1-0.1,0.2-0.2,0.2c-0.5,0.9-4.8,8.8-1.1,16.1c2.6,5.1,8.1,8.1,16.3,9.1c1.2,0.1,2.4,0.2,3.6,0.2
		c16.5,0,35.8-11.4,44.2-17.1c7.6,8.8,22.7,13.4,44.4,13.4c2.9,0,6-0.1,9.1-0.2c18.1-0.9,34.8-8.2,44.5-13.4
		c0.2,0.6,0.5,1.1,0.8,1.6c3.8,6.3,13.3,7.7,20.7,7.7c1.7,0,2.9-0.1,3-0.1c1.7-0.1,3.2-1.1,4.1-2.6c0.2-0.4,22.4-41.3,49.7-52
		c2.9-1.1,5-1.8,6.4-2.2c-1.4,2.6-4.2,6.4-8.3,11.6c-1,1.2-1.7,2.2-2.3,2.9c0,0,0,0,0,0.1c-0.3,0.4-0.6,0.9-1.1,1.5
		c-4.6,6.2-14.2,19.1-10.4,29.4c1.2,3.4,4.5,7.8,12.8,9.6c2.3,0.5,4.7,0.8,7.3,0.8c13.5,0,28.1-7.2,37.5-12.8
		c0.1,0.3,0.2,0.5,0.3,0.8c2.2,5.1,7.7,8.2,16.6,9.1c1.4,0.2,3,0.2,4.5,0.2c16.7,0,34.2-9.6,41.3-14c12.7,9.6,28.9,10.7,35.7,10.7
		c1,0,1.7,0,2,0c0.3,0,0.5,0,0.8,0c17,0,29.6-2.5,37.5-7.4c6.9-4.3,8.9-9.7,9.4-13.4c0.7-5.9-3.3-12.2-12.7-19.5
		c2.3,0.4,4.8,0.6,7.1,0.6c1,0,2.1,0,3.2-0.1c6.6-0.5,12.4-3,15.7-7c2-2.4,3-5.1,2.7-7.6c0,0,0-0.1,0-0.1
		c-0.7-5.5-5.9-14.9-33.2-16.3c-1.8-0.1-3.6-0.1-5.3-0.1c-10.2,0-19.3,1.7-26.2,4.8c-7,3.2-11.1,7.7-11.7,12.5
		c-0.4,3.3,0.4,6.3,1.8,9.1c-0.1-0.1-0.2-0.1-0.3-0.2c-0.7-0.4-1.6-0.6-2.4-0.6c-0.1,0-0.1,0-0.2,0c-15,0.5-24.8,4.4-29.2,11.7
		c-2.6,4.2-2.7,8.8-2.1,12.4c-9,5.7-15.3,7.8-19.3,8.6c2.2-4,5.8-9.8,11.6-16.8c12.3-15,13.1-21.8,12.8-24.1l0,0
		c-1-7.9-9.4-12.5-23.1-12.5c-0.9,0-1.4,0-1.4,0c-1.6,0.1-3.1,0.9-3.9,2.2l-25.1,37.4c-16.7,11.4-25.9,15.4-30.8,16.7
		c1.7-3.3,4.7-8.2,9.8-14.7c11.3-14.3,12.1-21.6,11.8-24.6c-0.3-4.9-2.7-15.4-18.7-15.4c-8.9,0-20,3.3-28.8,6.6
		c21.1-30.6,43.8-53.6,67.5-68.4c22.3-14,46.2-21.1,70.9-21.1c32.3,0,60.7,11.9,81.8,22.2c1.7,0.9,3,1.3,4.3,1.3
		c2.5,0,4.6-1.7,5.1-4.1c0.7-3.6-2.1-5.8-7.8-10c-1.9-1.4-6.5-4.7-8.7-5.6l0,0C771.2,186.8,745,181.4,719.7,181.4L719.7,181.4z
		 M750.8,284.5c1.5-0.9,5.4-2.5,13.1-2.7c-2.1,1.1-3.8,2.3-5,3.8c-1.9,2.3-2.1,4.4-1.9,5.8C752.5,287.8,751.2,285.7,750.8,284.5
		L750.8,284.5z M704.6,318.3c-0.1-0.2-0.7-1.1-0.4-1.8c0.2-0.4,1.8-4,14.7-6.6c1.9-0.4,7.8-1.5,8.5-6.5c0.1-0.6,0.1-1.2,0-1.8
		c2.4,2.6,5.4,5,8.3,7.1c12.1,8.9,13.1,12.9,13,13.9c-0.5,1.5-6.5,5.3-18.2,5.3c-1.8,0-3.6-0.1-5.5-0.3c-14.3-1.3-19.9-8.4-20.3-9
		C704.8,318.4,704.8,318.5,704.6,318.3L704.6,318.3z M303.2,225.4c-1.1,0-2.2,0.4-3.1,1c-1.3,1-2,2.5-1.9,4.1
		c0.1,2.2-1.3,4.7-1.7,5.2c-0.9,1.3-1.1,3-0.5,4.5c0.6,1.5,1.8,2.6,3.3,3.1l4.3,1.2c0.4,0.1,0.9,0.2,1.3,0.2c0.9,0,1.8-0.2,2.6-0.7
		c1.2-0.7,2-1.9,2.3-3.3l1.7-8.3c0.5-2.6-1-5.1-3.5-5.8l-3.5-1C304.1,225.5,303.7,225.4,303.2,225.4L303.2,225.4z M692.3,249.7
		c-11.9,0-20.5,5.1-20.5,12.2s8.6,12.2,20.5,12.2s20.5-5.1,20.5-12.2S704.2,249.7,692.3,249.7L692.3,249.7z M408,261.7
		c-11.9,0-20.5,5.1-20.5,12.2s8.6,12.2,20.5,12.2s20.5-5.1,20.5-12.2S419.9,261.7,408,261.7L408,261.7z"/>
</g>
<path id="barra2" class="st1" d="M698.9,333.3c-20.4,69.9-96.6,122-187.2,122s-166.8-52.1-187.2-122h-61.7c3.4,17,9,33.7,17,49.7
	c13,26.2,31.6,49.7,55.1,69.7c47.5,40.4,110.3,62.6,176.8,62.6c66.6,0,129.4-22.2,176.8-62.6c23.5-20,42.1-43.5,55.1-69.7
	c8-16,13.6-32.6,17-49.7H698.9z"/>
<path id="barra1" class="st0" d="M688.1,199.6c-1-1.6-1.9-3.1-2.8-4.7c-9.2-13.9-21.4-25.8-35.4-36.1c-14-10.2-29.6-18.9-46.8-26.8
	c-12-5.8-25.7-10-39.7-12.6c-14.1-2.4-28.3-3.1-41.6-3.3c15.8,0.8,31.6,2.8,47.1,6.3c15.5,3.6,30.7,8.7,44.9,15.5
	c14.2,6.9,27.5,15.5,39.1,25.6s21.6,21.7,29.1,34.1c-1.5-0.5-3.1-1.1-4.6-1.8c-1.6-0.7-3.2-1.3-4.7-2.1c-3.1-1.6-6-3.8-8.9-6.3
	c-1.6-1.7-3.3-3.4-4.9-5.1c-1.7-1.6-3.5-3.2-5.2-4.8c-3.4-3.3-7.2-6.1-10.9-9c-1.8-1.5-3.8-2.8-5.7-4.1s-3.9-2.7-5.8-4
	c-2-1.2-4-2.4-6.1-3.6l-3-1.8l-1.5-0.9l-1.6-0.8c0.6-1.3,1.8-3.9,2.4-5.2c-3.2-1.2-6.4-2.4-9.5-3.7c-3.2-1.2-6.4-2.3-9.5-3.5
	c-3.1-1.3-6.3-2.2-9.5-3.3c-1.6-0.6-3.2-1.1-4.7-1.6c-1.6-0.6-3.2-0.9-4.8-1.4c-12.7-4.1-25.7-7.1-38.9-9.2c-3.3-0.4-6.6-1-9.9-1.3
	c-3.3-0.2-6.7-0.5-10-0.7c-3.4-0.3-6.7-0.2-10.1-0.3c-1.7,0-3.4,0.1-5.1,0.1c-1.7,0.1-3.4,0.1-5.1,0.3c-1.7,0.1-3.4,0.3-5.1,0.4
	c-1.7,0.2-3.4,0.4-5,0.7l-2.5,0.4l-2.5,0.5c-1.7,0.3-3.3,0.6-5,1c-6.7,1.5-13.3,3.5-19.7,6c2.1,0.3,1.2,1.7,1,2.7
	c-0.1,0-0.3,0.1-0.4,0.1c0.1,0,0.2-0.1,0.4-0.1c-0.2,0.9,0.2,1.5,3.5,0.7c-3.3,0.8-3.6,0.2-3.5-0.7c25.7-7.3,52.1-8.9,77.8-6
	l4.8,0.5c1.6,0.2,3.2,0.5,4.8,0.8c3.2,0.6,6.4,1.1,9.5,1.7c3.1,0.8,6.3,1.5,9.4,2.3l2.4,0.6l2.3,0.7l4.6,1.4l4.6,1.4
	c1.5,0.5,3,1.1,4.6,1.7c1.5,0.6,3,1.2,4.6,1.7l2.3,0.9l1.1,0.4l1.1,0.5c3,1.3,5.9,2.7,8.9,4.1c1.5,0.6,2.9,1.5,4.4,2.2
	c1.4,0.8,2.9,1.5,4.3,2.3c-2.3-1.2-4.5-2.3-6.8-3.5c-2.3-1.1-4.7-2-7-3l-3.5-1.5c-0.6-0.2-1.2-0.5-1.8-0.7l-1.8-0.6
	c-2.4-0.8-4.8-1.7-7.2-2.5c-2.4-0.9-4.8-1.6-7.3-2.3l-7.3-2.1c-2.5-0.6-5-1.1-7.4-1.6l-3.7-0.8l-1.9-0.4l-1.9-0.3L552,132l-3.8-0.6
	l-3.8-0.3l-7.6-0.7l-1.9-0.2H533l-3.8-0.1l-7.6-0.2l-7.6,0.2l-7.6,0.4c-2.5,0.2-5.1,0.4-7.6,0.7c-20.2,2.2-40.1,7.2-59,14.9
	c-9.5,3.8-18.7,8.4-27.5,13.6c-8.9,5.2-17.4,11-25.4,17.6c-1.4,1.1-3.4,2.8-5.4,4.5c-1,0.9-2,1.7-2.9,2.6c-0.9,0.8-1.7,1.6-2.3,2.2
	c-6.5,3.2-12.5,7.4-17.8,12.3c-5.3,4.9-9.9,10.5-13.8,16.6c-1.9-3.6-7.7-4.3-10.7-7c-1.5-1.4-2.3-3.3-1.5-6.4
	c0.5-1.6,1.3-3.4,2.8-5.7c0.7-1.1,1.6-2.3,2.6-3.6c0.5-0.6,1.1-1.3,1.7-2s1.3-1.4,2-2.1c-1.1-0.9-3.2-2.8-4.2-3.7
	c-6.5,5.2-12.6,9.4-17.9,12.4c-1.3,0.7-2.7,1.4-3.9,1.9c-1.2,0.6-2.4,1-3.6,1.4c-2.3,0.7-4.4,1-6.2,0.9c-1.8-0.2-3.3-0.8-4.4-1.9
	c-0.6-0.6-1.1-1.2-1.5-2s-0.6-1.8-0.8-2.9c-0.6-4.4,0.7-11.1,5.2-19.8c5.1-9.7,12.1-19.3,20.3-28.4c8.2-9.1,17.8-17.6,28.2-25.4
	c10.4-7.8,21.5-14.8,32.9-21.1c11.4-6.3,23.1-11.9,34.7-17.1c4.2-1.9,8.5-3.5,12.8-5.1c4.3-1.5,8.7-3.1,13.1-4.4
	c8.8-2.7,17.7-4.9,26.7-6.5s18.1-2.7,27.2-3.1s18.2-0.3,27.3,0.8c24.8,2.7,50.5,7.2,75.2,15.4c24.6,8.4,48.2,20.6,67.6,36.7
	c0.9,0.7,1.9,1.4,2.8,2.2c1,0.8,2,1.5,3.1,2.3c2.1,1.5,4.4,3.1,6.8,4.7c2.3,1.7,4.6,3.4,7,5.2c1.2,0.9,2.3,1.7,3.5,2.6
	c1.2,0.9,2.3,1.7,3.4,2.7c2.2,1.9,4.3,3.7,6.3,5.5s3.8,3.5,5.4,5.2c3.1,3.5,5.3,6.6,6.2,9c0.8,1.5,1.2,2.9,1.4,4s0.1,2.1-0.2,2.9
	c-0.5,1.6-1.8,2.5-3.3,3.3c-2.3-2.9-4.8-5.5-7.3-8.1s-4.9-5.4-7.6-7.8c-2.7-2.5-5.3-4.9-8-7.4c-2.8-2.3-5.6-4.6-8.3-6.9
	c-2.7-2.4-5.7-4.4-8.6-6.5c-2.9-2.1-5.7-4.3-8.8-6.2c-3-1.9-6-3.9-9-5.8c-3-1.8-6.1-3.5-9.2-5.3c-15-8.8-30.8-16.1-47.1-22.1
	l-12.4-4.1c-4.2-1.3-8.4-2.4-12.5-3.5l-3.1-0.9c-1-0.3-2.1-0.5-3.2-0.7l-6.4-1.4l-6.4-1.4c-2.1-0.4-4.3-0.7-6.4-1.1
	c2.1,0.4,4.2,0.9,6.3,1.3c2.1,0.5,4.2,1.1,6.3,1.6s4.2,1,6.3,1.5c1,0.3,2.1,0.5,3.1,0.8l3.1,0.9c4.1,1.2,8.3,2.4,12.4,3.6
	c4.1,1.4,8.2,2.8,12.3,4.1c16.3,5.9,32.3,12.9,47.8,21.5c24.3,14.3,46.4,32.8,64.2,55.1c-2.8,1.2-5.5,2.6-6.4,5.8
	c0,0,1.4,1.6,3.1,3.6c0.9,1,1.8,2.1,2.7,3.2c0.4,0.5,0.9,1,1.3,1.5c0.4,0.5,0.7,1,1.1,1.4c2.4,9.1,0.8,14-2.5,16.6
	c-3.4,2.6-8.5,2.8-13.4,2.1c-1.1-0.3-2.3-0.6-3.5-1C690.7,200.3,689.5,199.9,688.1,199.6z"/>
<path id="mexican" class="st0" d="M319.6,417.3l20.8-17l4,3.9l-10.3,12.3l14.3-8.3l3.9,3.8l-20.1,17.6l-2.7-2.6l13.4-11.8l-15.7,9.5
	l-2.3-2.3l11.5-13.8l-14,11.4L319.6,417.3z M340.5,436.7l18.7-19.3l8.4,6.7l-2.8,2.9l-4.4-3.4l-4.7,4.8l3.3,2.6l-2.8,2.9l-3.3-2.6
	l-5.6,5.8l4.4,3.5l-2.8,2.8L340.5,436.7z M355.4,448.4l13-8.6l4.1-12.1l4.1,2.8l-2.4,7.2l6.5-4.5l3.7,2.5l-12.3,8.4l-4.3,12.7
	l-4.1-2.7l2.6-7.9L359,451L355.4,448.4z M375.7,461.3l15.3-22l4.6,2.6l-15.3,22L375.7,461.3z M395.7,472.2c-1-0.5-1.8-1-2.4-1.6
	s-1-1.2-1.3-1.9s-0.3-1.4-0.3-2.2c0-0.8,0.2-1.6,0.6-2.5c0.1-0.3,0.2-0.6,0.4-0.9c0.3-0.6,0.6-1.2,1-1.8l4.8-8.2
	c0.7-1.3,1.5-2.3,2.2-3.1c0.8-0.8,1.6-1.5,2.5-1.9c0.9-0.5,1.9-0.7,2.9-0.6c1.1,0.1,2.2,0.4,3.4,0.9c0.9,0.4,1.7,0.9,2.3,1.5
	c0.6,0.5,1,1.1,1.3,1.7c0.2,0.6,0.4,1.3,0.3,2s-0.2,1.4-0.5,2.1c-0.1,0.3-0.3,0.6-0.4,0.9c-0.2,0.4-0.4,0.9-0.7,1.4l-1.2,2l-4.6-2.2
	l1.3-2.3c0.1-0.2,0.2-0.4,0.3-0.5c0.1-0.1,0.1-0.2,0.3-0.5c0.1-0.2,0.2-0.4,0.2-0.5s0.1-0.2,0.1-0.4c0.1-0.2,0.1-0.3,0.1-0.4
	s0-0.2,0-0.4c0-0.2-0.1-0.3-0.1-0.4c-0.1-0.1-0.2-0.2-0.3-0.3s-0.3-0.2-0.4-0.3c-0.3-0.1-0.6-0.2-0.9-0.2s-0.5,0.1-0.8,0.2
	c-0.2,0.1-0.4,0.3-0.7,0.6c-0.2,0.3-0.4,0.5-0.6,0.7s-0.3,0.5-0.6,0.9l-6.3,10.7c-0.2,0.3-0.4,0.7-0.5,1c-0.3,0.5-0.4,1-0.4,1.4
	c-0.1,0.6,0.3,1.1,0.9,1.4c0.3,0.1,0.6,0.2,0.9,0.2s0.5-0.1,0.7-0.2s0.4-0.3,0.7-0.6c0.2-0.3,0.4-0.5,0.6-0.7
	c0.1-0.2,0.3-0.5,0.5-0.9l1.4-2.4l4.6,2.2l-1.2,2c-0.6,1.1-1.3,1.9-1.9,2.6c-0.7,0.7-1.4,1.3-2.3,1.7s-1.8,0.6-2.8,0.6
	S396.9,472.8,395.7,472.2z M410.6,478.4l15.8-22.7l5.5,2l-7.1,25.8l-4.6-1.6l1.7-5.5l-3.4-1.2l-3.2,4.9L410.6,478.4z M420.4,472.1
	l2.5,0.9l3.2-9.9L420.4,472.1z M434,486.4l9.3-25.2l3.6,0.9l0.4,13.6l4.5-12.3l4.2,1.1l-9.3,25.2l-3.4-0.9v-14.5l-4.9,13.3
	L434,486.4z M470.7,494.4l5.9-26.2l10.3,1.3l-0.9,3.9l-5.1-0.7l-1.5,6.7l4.4,0.6l-0.9,4l-4.4-0.6l-2.6,11.7L470.7,494.4z
	 M497.4,497.4c-1.3-0.1-2.4-0.3-3.3-0.7s-1.6-1.1-2-1.9s-0.7-1.7-0.8-2.8c-0.1-0.6-0.1-1.1,0-1.8c0-0.6,0.1-1.2,0.2-1.9l1.4-9.8
	c0.4-2.9,1.3-5,2.6-6.4c1.3-1.4,3.3-2.1,5.9-1.9c2.6,0.1,4.4,0.9,5.3,2.5c0.7,1.2,1,2.8,0.9,4.8c0,0.6-0.1,1.2-0.2,1.8l-1.4,9.8
	c-0.4,2.9-1.3,5-2.6,6.5C502,496.8,500,497.5,497.4,497.4z M498,493.3c0.4,0,0.8-0.1,1.1-0.2c0.3-0.2,0.5-0.4,0.7-0.7s0.3-0.7,0.4-1
	s0.2-0.7,0.2-1.2l1.8-12.7c0.1-0.4,0.1-0.9,0.1-1.3c0-0.1,0-0.2,0-0.3c0-0.5-0.1-0.9-0.4-1.2c-0.3-0.3-0.7-0.5-1.2-0.5
	c-0.4,0-0.8,0.1-1,0.2c-0.3,0.2-0.5,0.4-0.7,0.7s-0.3,0.7-0.4,1s-0.2,0.7-0.2,1.2l-1.8,12.7c-0.1,0.5-0.1,1-0.1,1.4c0,0,0,0.1,0,0.2
	c0,0.5,0.1,0.9,0.3,1.2C497.1,493.1,497.5,493.3,498,493.3z M522.2,497.5c-1.3,0.1-2.5-0.1-3.4-0.5s-1.6-0.9-2.2-1.7
	c-0.5-0.8-0.9-1.7-1-2.7c-0.1-0.5-0.2-1.1-0.2-1.8c0-0.6,0-1.2,0-1.9l0.5-9.9c0.2-2.9,0.8-5.1,2-6.6s3.1-2.3,5.7-2.4
	c2.6-0.1,4.4,0.5,5.5,2c0.8,1.1,1.3,2.7,1.3,4.7c0,0.6,0,1.2,0,1.8l-0.5,9.9c-0.2,2.9-0.8,5.1-2,6.7
	C526.7,496.6,524.8,497.4,522.2,497.5z M522.4,493.4c0.4,0,0.8-0.1,1-0.3s0.5-0.5,0.6-0.8s0.2-0.7,0.3-1s0.1-0.7,0.1-1.2l0.7-12.8
	c0-0.5,0-0.9,0-1.3c0-0.1,0-0.2,0-0.3c0-0.5-0.2-0.9-0.5-1.2c-0.3-0.3-0.7-0.5-1.2-0.4c-0.4,0-0.7,0.1-1,0.3
	c-0.3,0.2-0.5,0.4-0.6,0.8c-0.1,0.3-0.2,0.7-0.3,1s-0.1,0.7-0.1,1.2l-0.7,12.8c0,0.5,0,1,0,1.4c0,0,0,0.1,0,0.2
	c0,0.5,0.2,0.9,0.4,1.2C521.5,493.3,521.9,493.4,522.4,493.4z M540,496l-0.9-26.8l6-0.8c1.6-0.2,2.9-0.2,3.9,0s1.9,0.6,2.5,1.2
	s1.1,1.4,1.4,2.4c0.1,0.5,0.3,1.1,0.3,1.8c0.1,0.6,0.1,1.3,0.2,2.1l0.3,9.7c0.1,1.6,0,2.9-0.2,4s-0.6,2-1.2,2.8
	c-0.6,0.8-1.4,1.4-2.4,1.9s-2.3,0.8-3.8,1L540,496z M545,491.3l0.9-0.1c0.5-0.1,0.9-0.2,1.2-0.3s0.6-0.3,0.7-0.5
	c0.2-0.2,0.3-0.5,0.4-0.8c0.1-0.4,0.1-0.7,0.1-1.1c0-0.3,0-0.8,0-1.4l-0.4-11.4c0-0.5,0-0.9-0.1-1.3c0-0.3-0.1-0.5-0.1-0.7
	c-0.1-0.5-0.4-0.8-0.8-1c-0.4-0.2-1-0.2-1.8-0.1h-0.7L545,491.3z M576.6,489.8l-0.1-27.7l5.7-1.6l9,25.2l-4.7,1.3l-1.8-5.4l-3.5,0.9
	l0.2,5.9L576.6,489.8z M581,479.1l2.6-0.7l-3.1-10L581,479.1z M600.4,482.9l-6.9-25.9l3.5-1.3l8.1,10.9l-3.4-12.7l4.1-1.5l6.9,25.9
	l-3.3,1.3l-8.4-11.9l3.6,13.6L600.4,482.9z M622.8,474.2l-9.3-25.2l5.4-2.6c1.4-0.7,2.7-1.1,3.7-1.3c1-0.2,2,0,2.8,0.4
	s1.5,1,2.1,1.9c0.3,0.4,0.6,1,0.9,1.6c0.3,0.6,0.5,1.2,0.8,1.9l3.3,9.1c0.5,1.5,0.9,2.8,1,3.8s0,2.1-0.3,3.1s-0.9,1.8-1.7,2.6
	s-1.9,1.5-3.3,2.1L622.8,474.2z M626.1,468.1l0.8-0.4c0.4-0.2,0.8-0.4,1.1-0.7c0.3-0.2,0.4-0.5,0.5-0.7s0.1-0.6,0.1-0.9
	c0-0.4-0.1-0.7-0.2-1.1s-0.3-0.8-0.5-1.3l-3.9-10.7c-0.2-0.5-0.3-0.9-0.5-1.2c-0.1-0.2-0.2-0.5-0.3-0.6c-0.3-0.4-0.6-0.7-1.1-0.7
	c-0.4,0-1,0.1-1.7,0.4l-0.7,0.4L626.1,468.1z M656.7,456l-12.8-23.6l4.6-3.2l10.1,12.4l-5.4-15.7l4.5-3.1l13.4,23.2l-3.1,2.1
	l-9-15.4l6.3,17.3l-2.7,1.9l-11.3-14l8.5,15.9L656.7,456z M685.3,435.1c-1,0.9-2,1.5-2.9,1.8s-1.9,0.3-2.7,0s-1.7-0.8-2.5-1.5
	c-0.4-0.4-0.8-0.8-1.3-1.3c-0.4-0.5-0.8-1-1.2-1.5l-5.7-8.1c-1.7-2.4-2.5-4.5-2.6-6.5c0-1.9,1-3.8,2.9-5.5c2-1.7,3.8-2.3,5.5-1.9
	c1.3,0.4,2.7,1.3,4,2.8c0.4,0.4,0.7,0.9,1.1,1.4l5.7,8.1c1.7,2.4,2.5,4.5,2.5,6.5C688.3,431.5,687.3,433.4,685.3,435.1z
	 M682.9,431.7c0.3-0.3,0.5-0.6,0.6-0.9s0.1-0.7,0-1s-0.2-0.7-0.4-1s-0.4-0.6-0.7-1l-7.4-10.4c-0.3-0.4-0.5-0.7-0.8-1
	c-0.1-0.1-0.1-0.1-0.2-0.2c-0.3-0.4-0.7-0.6-1.1-0.6c-0.4-0.1-0.8,0.1-1.2,0.4c-0.3,0.3-0.5,0.6-0.6,0.9s-0.1,0.6,0,1s0.2,0.7,0.4,1
	s0.4,0.6,0.7,1l7.4,10.4c0.3,0.4,0.6,0.8,0.9,1.1l0.1,0.1c0.3,0.4,0.7,0.6,1.1,0.7C682.1,432.2,682.5,432,682.9,431.7z M698.4,422.6
	l-17.7-20.2l4.4-4.7c0.7-0.7,1.4-1.4,2-1.8s1.3-0.8,2-1.1c0.7-0.3,1.4-0.3,2-0.3c0.7,0.1,1.4,0.3,2.1,0.8c0.4,0.3,0.9,0.6,1.3,1
	c0.3,0.3,0.5,0.5,0.8,0.9c1.1,1.3,1.9,2.5,2.3,3.7c0.4,1.2,0.4,2.4,0,3.7l11.1,7.1l-3.6,3.8l-10-6.9l-1.1,1.1l7.9,9L698.4,422.6z
	 M691.9,407.2l0.9-1c0.8-0.8,1.1-1.6,1-2.4s-0.6-1.7-1.4-2.6c-0.2-0.2-0.4-0.5-0.7-0.7c-0.6-0.5-1.1-0.9-1.6-1
	c-0.7-0.2-1.4,0.1-2.1,0.9l-1.1,1.2L691.9,407.2z M715.1,404.1l-19.6-18.3l6.6-8.5l2.9,2.7l-3.4,4.4l4.9,4.6l2.6-3.3l3,2.8l-2.6,3.4
	l5.9,5.5l3.4-4.4l2.9,2.7L715.1,404.1z"/>
<path id="togo" class="st0" d="M524,379.6c3-0.4,5.5-0.4,7.5-0.1s3.7,0.8,5,1.4s2.2,1.3,2.8,2.1c0.6,0.8,0.9,1.5,1,2.1
	s0,1.1-0.4,1.6c-0.3,0.5-0.8,0.8-1.4,0.8c-0.4,0.1-0.8,0-1-0.1s-0.4-0.2-0.4-0.4c-0.1-0.2-0.1-0.4-0.1-0.7c0-0.2,0-0.5,0.1-0.7
	c0-0.1,0-0.3,0-0.4c0-0.3-0.2-0.7-0.5-1s-0.8-0.7-1.3-0.9c-0.6-0.3-1.3-0.4-2.1-0.6c-0.8-0.1-1.7-0.1-2.7,0
	c-4.1,0.5-7.9,1.3-11.5,2.3s-6.9,2.2-9.9,3.5c-3,1.3-5.8,2.6-8.2,3.9c-2.5,1.3-4.6,2.6-6.5,3.7c-0.4,0.2-0.6,0.4-0.8,0.5
	c-0.2,0.1-0.3,0.2-0.4,0.3c-0.1,0.1-0.2,0.1-0.4,0.2c-0.1,0.1-0.3,0.2-0.6,0.4c1.8,0.1,3.5,0.5,5,1c1.5,0.6,2.7,1.3,3.5,2.3
	c0.4-1,0.7-1.9,1-2.7c0.3-0.9,0.6-1.6,0.8-2.3c0.2-0.7,0.4-1.2,0.5-1.7c0.1-0.4,0.2-0.7,0.2-0.9c-0.1-0.4,0.1-0.6,0.6-0.6
	c0.4,0,0.9,0.1,1.5,0.4s1.1,0.6,1.6,1.1c0.5,0.4,0.8,0.9,0.8,1.3c0.1,0.5,0,1.2-0.2,2s-0.5,1.8-0.8,2.8s-0.8,2.2-1.2,3.4
	c-0.5,1.2-0.9,2.4-1.4,3.6s-1,2.5-1.4,3.7c-0.5,1.2-0.9,2.3-1.2,3.4s-0.6,2-0.8,2.8c-0.2,0.8-0.3,1.4-0.2,1.9
	c0.1,0.8,0.2,1.5,0.4,2.1c0.2,0.6,0.3,1.1,0.5,1.5l0,0c0.1,0.4,0.2,0.7,0.3,1c0.1,0.3,0.1,0.5,0.1,0.7s-0.1,0.3-0.3,0.4
	c-0.2,0.1-0.5,0.2-0.9,0.2c-0.4,0.1-0.9,0-1.5-0.3s-1.1-0.6-1.7-1.1c-0.5-0.5-1-1.2-1.4-1.9c-0.4-0.8-0.7-1.7-0.8-2.7
	c-0.1-0.6,0-1.4,0.2-2.4s0.5-2.1,0.9-3.4s0.8-2.6,1.3-4s1-2.8,1.6-4.2c0-0.2,0-0.4,0.1-0.5c0-0.2,0-0.3,0-0.4
	c-0.1-0.5-0.3-1-0.8-1.5c-0.4-0.4-1-0.8-1.7-1.2c-0.7-0.3-1.4-0.6-2.3-0.8c-0.9-0.2-1.7-0.4-2.7-0.5c-0.9-0.1-1.8-0.2-2.7-0.2
	c-0.9,0-1.7,0-2.5,0.1c-0.5,0.1-1.1,0-1.6-0.2s-1-0.4-1.5-0.7c-0.4-0.3-0.8-0.6-1.1-1c-0.3-0.4-0.5-0.7-0.5-1.1
	c-0.1-0.5,0.1-0.9,0.4-1.2c0.3-0.4,0.9-0.6,1.7-0.7c0.3,0,1-0.3,2-0.8s2.3-1.1,3.9-1.9c1.3-0.7,2.8-1.4,4.5-2.3
	c1.6-0.8,3.4-1.7,5.2-2.5c1.9-0.9,3.8-1.7,5.8-2.6c2-0.8,4.1-1.6,6.2-2.3c2.1-0.7,4.2-1.4,6.3-1.9C520,380.2,522.1,379.8,524,379.6z
	 M528.4,401.1c0.1-0.2,0.2-0.3,0.5-0.4c0.3,0,0.5,0,0.7,0.1s0.5,0.2,0.6,0.4s0.2,0.4,0.2,0.6c-0.1,0.3-0.3,0.8-0.5,1.3
	s-0.5,1.2-0.9,1.9c-0.4,0.7-0.8,1.4-1.3,2.1s-1.1,1.4-1.7,2.1c-0.6,0.7-1.3,1.3-2.1,1.8s-1.6,0.9-2.5,1.2c-0.8,1.5-1.8,2.8-2.9,3.8
	c-1.1,1-2.4,1.6-3.7,1.8c-0.7,0.1-1.4,0-2.2-0.2c-0.7-0.2-1.4-0.5-2-1s-1.1-1.1-1.6-1.9c-0.4-0.8-0.7-1.7-0.9-2.9
	c-0.1-1-0.1-2.2,0.2-3.3c0.3-1.2,0.6-2.2,1-3.2s0.9-1.8,1.4-2.5s0.9-1,1.2-1c0.2,0,0.5,0,0.7,0c0.3,0,0.5,0,0.8,0.1
	c0.3-0.6,0.7-1.1,1.1-1.6c0.4-0.5,0.8-1,1.3-1.4s1-0.7,1.5-1s1.1-0.4,1.6-0.5c0.8-0.1,1.5-0.1,2.1,0s1,0.3,1.4,0.6
	c0.4,0.3,0.6,0.7,0.8,1.1c0.2,0.5,0.3,1,0.4,1.5c0.4,2.9,0.1,5.7-0.9,8.5c0.7-0.5,1.4-1.2,2-2s1.2-1.5,1.7-2.3s0.9-1.5,1.2-2.2
	S528.3,401.4,528.4,401.1z M514.7,415.3c0.8-0.1,1.5-0.4,2.1-0.9s1.2-1.1,1.7-1.9c-0.9-0.1-1.7-0.4-2.5-0.7
	c-0.8-0.4-1.5-0.8-2.1-1.3c-0.2,0.7-0.4,1.4-0.5,2.1s-0.1,1.2-0.1,1.7c0,0.4,0.2,0.7,0.4,0.8C513.9,415.3,514.3,415.3,514.7,415.3z
	 M517.7,408.6c0.1,0.5,0.2,0.9,0.5,1.2c0.3,0.3,0.7,0.5,1.4,0.5c0.3-0.8,0.6-1.6,0.9-2.5c0.2-0.9,0.4-1.7,0.6-2.5
	c0.1-0.8,0.2-1.6,0.3-2.3c0-0.7,0-1.4,0-1.9c-0.1-0.9-0.3-1.3-0.5-1.3s-0.5,0.3-0.9,1c-0.4,0.6-0.8,1.4-1.1,2.3s-0.7,1.8-0.9,2.8
	C517.7,406.9,517.6,407.8,517.7,408.6z M561.5,396c0.5-0.1,1,0,1.4,0.1c0.5,0.1,0.9,0.4,1.2,0.7c0.3,0.3,0.6,0.6,0.9,1.1
	c0.2,0.4,0.4,0.9,0.4,1.3c0.1,1.1,0.1,2.4,0,3.9s-0.4,3-0.8,4.6c-0.4,1.6-0.9,3.3-1.5,5s-1.4,3.3-2.2,5c-0.8,1.6-1.7,3.1-2.7,4.6
	c-1,1.4-2.1,2.7-3.2,3.9c-1.1,1.1-2.3,2.1-3.6,2.8c-1.2,0.7-2.5,1.2-3.9,1.3c-1,0.1-1.8,0.1-2.5,0s-1.3-0.4-1.7-0.7
	c-0.4-0.3-0.8-0.7-1-1.1s-0.4-0.9-0.4-1.3c0-0.2,0-0.4,0-0.6s0-0.4,0.1-0.6c0.1-0.6,0.4-1.1,0.7-1.4s0.6-0.4,0.9-0.5
	c0.5-0.1,0.9,0.1,1.2,0.4s0.4,0.8,0.2,1.2c-0.1,0.2-0.1,0.4-0.1,0.5s0,0.3,0,0.4c0.1,0.7,0.8,0.9,2.1,0.7c1.2-0.1,2.2-0.6,3.3-1.5
	c1-0.8,2-1.9,2.8-3.2c0.9-1.3,1.7-2.7,2.4-4.3c0.7-1.6,1.4-3.3,1.9-5c0.6-1.7,1.1-3.4,1.5-5c0.4-1.7,0.7-3.2,1-4.6
	c-0.6,0.9-1.3,2-2,3.1s-1.5,2.2-2.3,3.4c-0.8,1.1-1.6,2.2-2.5,3.3s-1.7,2-2.5,2.8s-1.6,1.5-2.3,2c-0.8,0.5-1.4,0.8-2.1,0.9
	c-2,0.2-3.7-0.5-5.2-2.1c-1.4-1.7-2.4-4.4-2.9-8.3c-0.3-2.1-0.2-4.2,0.1-6.4c0.3-2.2,0.8-4.4,1.6-6.6s1.8-4.2,3-6.2s2.6-3.7,4.1-5.3
	s3.3-2.8,5.1-3.9c1.9-1,3.8-1.7,5.9-1.9c2.1-0.3,3.8,0,5,0.8c1.3,0.8,2,2.1,2.2,3.9c0.2,1.2,0.1,2.4-0.1,3.6s-0.6,2.2-1,3.1
	s-0.8,1.6-1.3,2.2c-0.4,0.6-0.8,0.9-1,0.9s-0.3-0.1-0.4-0.3c-0.1-0.2-0.1-0.4-0.2-0.7c0-0.3,0-0.5,0-0.7s0.1-0.3,0.1-0.3
	c0.1,0,0.3-0.2,0.4-0.5c0.1-0.3,0.2-0.8,0.3-1.3s0.1-1.1,0.2-1.7c0-0.6,0-1.3-0.1-1.9c0-0.3-0.1-0.6-0.2-1c-0.1-0.4-0.3-0.7-0.5-1
	s-0.5-0.6-0.7-0.7c-0.3-0.2-0.6-0.3-1-0.2c-1.9,0.2-3.6,0.9-5.2,2.1c-1.6,1.2-3,2.7-4.2,4.4c-1.2,1.8-2.3,3.7-3.1,5.9
	c-0.9,2.2-1.6,4.3-2.1,6.5s-0.9,4.2-1,6.2c-0.2,2-0.2,3.7,0,5.2c0.1,1.2,0.4,2.1,0.7,2.7s0.8,0.9,1.3,0.9c0.4-0.1,1-0.4,1.7-1.2
	c0.7-0.7,1.5-1.6,2.4-2.8c0.9-1.1,1.8-2.4,2.8-3.7c1-1.4,1.9-2.7,2.8-4.1c0.9-1.3,1.7-2.6,2.5-3.8c0.8-1.2,1.4-2.1,1.8-2.8
	c0,0,0-0.1,0,0l0,0c-0.1-0.2-0.2-0.4-0.2-0.6c-0.1-0.2,0-0.4,0-0.5c0.1-0.2,0.2-0.3,0.5-0.4C560.7,396.2,561,396.1,561.5,396z
	 M588.1,393.7c0.1-0.2,0.2-0.3,0.5-0.4s0.5,0,0.7,0.1s0.5,0.2,0.6,0.4c0.2,0.2,0.2,0.4,0.2,0.6c-0.1,0.3-0.3,0.8-0.5,1.3
	c-0.2,0.6-0.5,1.2-0.9,1.9c-0.4,0.7-0.8,1.4-1.3,2.1s-1.1,1.4-1.7,2.1c-0.6,0.7-1.3,1.3-2.1,1.8s-1.6,0.9-2.5,1.2
	c-0.8,1.5-1.8,2.8-2.9,3.8c-1.1,1-2.4,1.6-3.7,1.8c-0.7,0.1-1.4,0-2.2-0.2s-1.4-0.5-2-1s-1.1-1.1-1.6-1.9c-0.4-0.8-0.7-1.7-0.9-2.9
	c-0.1-1-0.1-2.2,0.2-3.3c0.3-1.2,0.6-2.2,1-3.2s0.9-1.8,1.4-2.5s0.9-1,1.2-1c0.2,0,0.5,0,0.7,0c0.3,0,0.5,0,0.8,0.1
	c0.3-0.6,0.7-1.1,1.1-1.6c0.4-0.5,0.8-1,1.3-1.4s1-0.7,1.5-1s1.1-0.4,1.6-0.5c0.8-0.1,1.5-0.1,2.1,0s1,0.3,1.4,0.6
	c0.4,0.3,0.6,0.7,0.8,1.1c0.2,0.5,0.3,1,0.4,1.5c0.4,2.9,0,5.7-0.9,8.5c0.7-0.5,1.4-1.2,2-2s1.2-1.5,1.7-2.3s0.9-1.5,1.2-2.2
	S587.9,394,588.1,393.7z M574.3,407.9c0.8-0.1,1.5-0.4,2.1-0.9s1.2-1.1,1.7-1.9c-0.9-0.1-1.7-0.4-2.5-0.7c-0.8-0.4-1.5-0.8-2.1-1.3
	c-0.2,0.7-0.4,1.4-0.5,2.1s-0.1,1.2-0.1,1.7c0,0.4,0.2,0.7,0.4,0.8C573.6,407.9,573.9,407.9,574.3,407.9z M577.4,401.2
	c0.1,0.5,0.2,0.9,0.5,1.2c0.3,0.3,0.7,0.5,1.4,0.5c0.3-0.8,0.6-1.6,0.9-2.5c0.2-0.9,0.4-1.7,0.6-2.5c0.1-0.8,0.2-1.6,0.3-2.3
	c0-0.7,0-1.4,0-1.9c-0.1-0.9-0.3-1.3-0.5-1.3s-0.5,0.3-0.9,1c-0.4,0.6-0.8,1.4-1.1,2.3c-0.4,0.9-0.7,1.8-0.9,2.8
	C577.3,399.5,577.3,400.4,577.4,401.2z"/>
<linearGradient id="liston_1_" gradientUnits="userSpaceOnUse" x1="174.3217" y1="284.0112" x2="914.2066" y2="284.0112">
	<stop  offset="0" style="stop-color:#8A1002"/>
	<stop  offset="0.3784" style="stop-color:#E30613"/>
	<stop  offset="0.7702" style="stop-color:#E30613"/>
	<stop  offset="0.9133" style="stop-color:#8A1002"/>
</linearGradient>
<path id="liston" class="st2" d="M801.8,390.3c-26.6-2.6-15.7-16.6-8.6-23.3c-0.1-0.1-0.1-0.2-0.1-0.2s-69.2-40.9-267.4-5.2
	S182.6,400.4,175.9,305S186,163.4,186,163.4s-0.8,125.8,320.5,64s330.6-16.9,314.9,71.2c-1.1,6.1-2.1,11.6-3.2,16.7
	c0.9,0.1,47.9,6.6,73.6-11.1c25.9-17.8-23.6,45-23.6,45s-6.7,19.6,36.3,33C947.5,395.5,835.7,393.7,801.8,390.3z M568.7,208.5
	c-280.8,39.3-355.9-7.9-375.7-32.2C261.2,277.3,568.7,208.5,568.7,208.5z M784.9,392.8c21.9,23.2,86.4,5.1,86.4,5.1
	C820.3,406.5,784.9,392.8,784.9,392.8z M423.5,384.5c203.4-33.5,352.7-18.8,352.7-18.8C679.4,333.7,423.5,384.5,423.5,384.5z"/>
<linearGradient id="lichis_2_" gradientUnits="userSpaceOnUse" x1="501.8282" y1="449.2586" x2="501.8282" y2="167.2924">
	<stop  offset="0.1515" style="stop-color:#F39200"/>
	<stop  offset="0.2866" style="stop-color:#FFED00"/>
	<stop  offset="0.4372" style="stop-color:#FFED00"/>
	<stop  offset="0.4941" style="stop-color:#FFFFFF"/>
	<stop  offset="0.6335" style="stop-color:#FFED00"/>
	<stop  offset="0.7385" style="stop-color:#FFED00"/>
	<stop  offset="0.9133" style="stop-color:#F39200"/>
</linearGradient>
<path id="lichis" class="st3" d="M806.7,211.3C756,186.5,661,151.5,571,294.3c0,0,55-27.5,55.9-1.9c0,0,1.4,5.6-10.7,21
	s-13,22.4-13,22.4s4.7,7.5,41.5-17.7l25.6-38.2c0,0,18.2-0.8,19.3,8.1c0,0,0.7,5.2-11.7,20.3c-12.3,15.1-15.4,24.7-15.4,24.7
	s9.3,4.7,32.9-11.2c0,0-9.6-20,25.6-21.2c0,0,5.1,2.8-3,4.4c-26.7,5.4-17.2,16.5-17.2,16.5s6.5,9.6,24,11.2s28.9-4,29.1-9.8
	c0.2-5.8-7.5-12.6-15.1-18.2c-7.7-5.6-12.6-10.8-11.9-16.8c0.7-6,13.7-14.1,38-12.8c24.3,1.2,28.1,8.7,28.5,11.9
	c0.3,3.1-4.2,8.4-13.8,9.1s-17.1-2.3-17.7-5.4c-0.5-3.1,9.3-8.4,19.2-7c0,0-2.4-7.2-16.1-7s-19.6,4.2-19.4,7
	c0.2,2.8,0.7,6.8,14.5,16.1c13.8,9.3,17.8,15.6,17.3,19.7c-0.5,4.2-4.4,16.6-42.8,16.4c0,0-22.7,1.4-37.2-11.9
	c0,0-24.8,17.3-45.6,15s-10.5-15.6-10.5-15.6s-29.5,22.5-50.7,17.8c-21.1-4.7-1.9-27.6,1.7-32.7c3.7-5.1,27.6-31.5-1.7-19.9
	c-29.4,11.5-52.3,54.3-52.3,54.3s-26.6,1.9-18.2-13.5c0,0-23.9,16.3-50.7,17.7c-26.7,1.4-46.1-3.3-51.9-15.2
	c0,0-28.3,21.1-48.6,18.9c-20.3-2.3-11.4-17.7-11.4-17.7l27.4-41.6c0,0,17.7-0.7,19.6,7S378.1,342,378.1,342s-5.4,10,20.3-1.7
	c0,0,15-7.5,18.2-11.7c0,0-4.9-26,46.1-39.3c0,0,47.7-10.8,53.8,7.9c0,0,2.1,8.7-15.9,10.3c-18,1.6-17.5-7-17.5-7s3-7.2,19.4-5.2
	c0,0,5.2-6.8-9.9-6.8s-30.5,9.3-36.8,17s-21.3,21.3-11.9,32.3s55,7.2,82-17.5c0,0,96.6-188.4,269.6-118.2
	C798.3,203.2,815,215.4,806.7,211.3z M300.7,238.5l4.3,1.2l1.7-8.3l-3.5-1C303.3,234.6,300.7,238.5,300.7,238.5z M614.8,387.4
	c5.6,34.6-20.3,69.2-79,60.5s-93-19-240.1-89c0,0-22,31.7-58.4,34.1c-36.3,2.4-60.5-25.2-25.9-54.2c0,0,25.2-22,81.1,1.7
	c0,0,6-9,16.6-35.4c-10.4,3.5-21.5,5.6-33.3,5.7c-71.7,0.3-77.2-52.4-73.7-75.5s31.1-64,74.4-55.6c0,0,31.1,6.7,31.1,34.6h-3.5
	c0,0,0-27.5-30.4-29.4c-30.5-1.9-54.2,35.2-55.9,59.7s7.6,60.2,58.4,61.9c12,0.4,23.8-2.1,35-6.4c4.8-12.3,10.4-27.8,16.8-47.4
	c22-67.8,39.8-89.1,67.1-84.9s8,51.1,8,51.1l-9.7,0.2c0,0,17.5-45.1,1-48.9c-16.4-3.8-30.4,29.4-47.2,84.9
	c-3.6,11.9-7.1,22.2-10.5,31.2c22-15.1,39.5-35.8,48.5-51.6l9.5-0.2c0,0-22.9,36.7-60.9,59.1c-11.2,27.9-20.8,41.5-27.5,51.6
	c0,0,58.7,25.2,115.3,54.2s122.5,53.5,160.9,39.5c38.3-14,31.7-80.4-21.4-78.6C561,360.5,609.2,352.8,614.8,387.4z M283.8,355.3
	c0,0-56.3-27.7-71.7-12.9c-15.4,14.8-10.1,49.1,26.2,46.5C267.4,386.7,283.8,355.3,283.8,355.3z M392.5,273.9c0,4,6.9,7.2,15.5,7.2
	s15.5-3.2,15.5-7.2s-6.9-7.2-15.5-7.2S392.5,269.9,392.5,273.9z M676.8,261.9c0,4,6.9,7.2,15.5,7.2s15.5-3.2,15.5-7.2
	s-6.9-7.2-15.5-7.2S676.8,257.9,676.8,261.9z"/>
<path id="sazon" class="st4" d="M353.4,175.9c-0.9,0.8-1.7,1.4-2.5,1.9c-0.8,0.4-1.6,0.6-2.4,0.6c-0.7,0-1.5-0.2-2.2-0.5
	s-1.4-0.8-2.1-1.4c-0.2-0.2-0.4-0.4-0.7-0.7c-0.5-0.5-0.9-1-1.4-1.6l-5.8-7.6c-0.9-1.2-1.6-2.2-2-3.3c-0.5-1-0.7-2.1-0.8-3.1
	c-0.1-1.1,0.2-2.1,0.7-3.1s1.3-2.1,2.4-3.1c0.8-0.8,1.6-1.4,2.4-1.8s1.5-0.6,2.2-0.7c0.7,0,1.4,0.1,2,0.3c0.7,0.2,1.3,0.6,1.9,1.2
	c0.2,0.2,0.5,0.5,0.7,0.7c0.3,0.4,0.7,0.7,1,1.2l1.4,1.9l-4.1,3.9l-1.6-2.1c-0.2-0.2-0.3-0.3-0.3-0.4c-0.1-0.1-0.2-0.2-0.3-0.4
	c-0.2-0.2-0.3-0.3-0.3-0.4c-0.1-0.1-0.2-0.2-0.4-0.3c-0.2-0.1-0.3-0.2-0.4-0.2s-0.2-0.1-0.4-0.1c-0.2,0-0.3,0-0.4,0
	s-0.3,0.1-0.4,0.2c-0.2,0.1-0.3,0.2-0.5,0.4c-0.3,0.3-0.5,0.5-0.6,0.8s-0.2,0.6-0.1,0.8c0,0.3,0.1,0.5,0.3,0.9
	c0.2,0.3,0.3,0.6,0.5,0.8s0.4,0.5,0.6,0.9l7.6,9.8c0.2,0.3,0.5,0.6,0.7,0.8c0.4,0.4,0.8,0.7,1.2,0.9c0.6,0.3,1.1,0.1,1.7-0.4
	c0.3-0.3,0.4-0.5,0.5-0.8s0.1-0.6,0.1-0.8s-0.1-0.5-0.3-0.9c-0.2-0.3-0.3-0.6-0.5-0.8c-0.1-0.2-0.3-0.5-0.6-0.8l-1.7-2.2l4.1-3.9
	l1.4,1.8c0.7,1,1.3,1.9,1.7,2.8c0.4,0.9,0.6,1.8,0.6,2.8s-0.2,2-0.7,3C355.3,173.9,354.5,174.9,353.4,175.9z M369.4,162.1
	c-1.2,0.9-2.3,1.5-3.3,1.8s-2,0.3-2.9,0s-1.7-0.8-2.5-1.5c-0.4-0.4-0.8-0.8-1.2-1.3c-0.4-0.5-0.7-1-1.1-1.6l-5.3-8.4
	c-1.5-2.5-2.2-4.7-2-6.7s1.4-3.9,3.7-5.7c2.3-1.8,4.3-2.4,6.1-1.9c1.4,0.4,2.7,1.4,3.9,3c0.4,0.4,0.7,0.9,1,1.5l5.3,8.4
	c1.5,2.5,2.2,4.7,2,6.8C372.9,158.4,371.7,160.3,369.4,162.1z M367.2,158.6c0.4-0.3,0.6-0.6,0.7-0.9c0.1-0.3,0.2-0.7,0.1-1.1
	c-0.1-0.4-0.2-0.7-0.3-1c-0.1-0.3-0.3-0.7-0.6-1.1l-6.7-10.9c-0.3-0.4-0.5-0.7-0.7-1c-0.1-0.1-0.1-0.1-0.2-0.2
	c-0.3-0.4-0.7-0.6-1.1-0.7c-0.4-0.1-0.9,0.1-1.4,0.4c-0.4,0.3-0.6,0.6-0.7,0.9c-0.1,0.3-0.2,0.7-0.1,1c0.1,0.4,0.2,0.7,0.3,1
	c0.1,0.3,0.3,0.7,0.6,1.1l6.8,10.8c0.3,0.4,0.6,0.8,0.8,1.2l0.1,0.1c0.3,0.4,0.7,0.6,1.1,0.7C366.3,159.1,366.8,158.9,367.2,158.6z
	 M380.7,153.1l-12-24.1l3.4-2.2l10.6,8.8l-5.9-11.8l4.1-2.6l12,24.1l-3.3,2.1l-11-9.6l6.3,12.6L380.7,153.1z M408.2,137l-8.7-25.4
	l10.8-5l1.3,3.8L406,113l2.2,6.4l4.2-2l1.3,3.8l-4.3,2l2.6,7.7l5.6-2.6l1.3,3.7L408.2,137z M424.2,129.8l-6.8-26l5.4-2l5.8,22.2
	l5.7-2.2l1,3.8L424.2,129.8z M457.5,119.7c-2.5,0.6-4.4,0.4-5.8-0.7c-1.2-0.9-2-2.4-2.5-4.6c-0.1-0.4-0.2-0.8-0.3-1.3l4.8-1.9
	c0.1,0.5,0.2,1,0.3,1.5c0.2,0.9,0.5,1.6,0.8,2c0.5,0.7,1.1,0.9,1.9,0.8c1-0.2,1.4-1,1.3-2.4c0-0.2-0.1-0.4-0.1-0.6
	c-0.2-0.7-0.5-1.3-0.9-1.8c-0.5-0.6-1.4-1.2-2.5-1.9l-2.7-1.6c-0.6-0.4-1.1-0.7-1.6-1c-0.4-0.3-0.8-0.7-1.2-1.2
	c-0.4-0.5-0.7-1-1-1.7c-0.1-0.3-0.3-0.7-0.3-1.1c-0.1-0.3-0.1-0.7-0.2-1.1c-0.3-2.2,0.1-4.1,1.2-5.6s2.8-2.5,5.1-3.1
	c0.8-0.2,1.5-0.3,2.1-0.3s1.2,0.1,1.7,0.3c0.5,0.2,0.9,0.4,1.3,0.7c0.4,0.3,0.7,0.7,1,1.1s0.5,0.8,0.7,1.3c0.2,0.4,0.3,0.8,0.4,1.2
	c0,0.1,0,0.1,0,0.2c0.1,0.5,0.2,1,0.3,1.4l-4.8,1.8c-0.1-0.7-0.2-1.4-0.4-1.9v-0.1c-0.1-0.6-0.4-1-0.7-1.3c-0.3-0.3-0.7-0.3-1.1-0.2
	h-0.1c-0.5,0.1-0.9,0.5-1.1,1s-0.3,1-0.2,1.6c0,0.2,0,0.3,0.1,0.5s0.1,0.4,0.2,0.6c0.1,0.3,0.3,0.6,0.5,0.8c0.2,0.2,0.4,0.5,0.7,0.7
	c0.3,0.2,0.5,0.4,0.7,0.5s0.5,0.3,0.8,0.5l2.6,1.5c0.7,0.4,1.3,0.8,1.8,1.2s1,0.9,1.5,1.4c0.5,0.6,0.9,1.2,1.2,1.9
	c0.2,0.4,0.3,0.9,0.4,1.3c0.1,0.3,0.1,0.7,0.2,1.1c0.3,1.9-0.2,3.7-1.2,5.2C461.1,118.1,459.5,119.2,457.5,119.7z M468.5,116.7
	l3.8-27.6l6.4-1l6.2,26.1l-5.3,0.8l-1.2-5.6l-3.9,0.6l-0.6,5.9L468.5,116.7z M474.9,106.5l2.9-0.4l-1.9-10.2L474.9,106.5z
	 M489.5,113.8l0.1-3.5l7.2-19.8l-6.3,0.4l0.1-4l12-0.8l-0.1,3.2l-7.4,20.2l6.8-0.5l-0.1,4L489.5,113.8z M515,113.1
	c-1.5,0-2.7-0.2-3.7-0.6s-1.8-1-2.3-1.8s-0.9-1.7-1-2.8c-0.1-0.5-0.1-1.1-0.1-1.8c0-0.6,0.1-1.2,0.1-1.9l1.2-9.9
	c0.3-2.9,1.2-5.1,2.6-6.5c1.4-1.5,3.6-2.2,6.4-2.1c2.9,0,4.9,0.8,5.9,2.3c0.8,1.2,1.2,2.7,1.2,4.8c0,0.6,0,1.2-0.1,1.8l-1.2,9.9
	c-0.3,2.9-1.2,5.1-2.7,6.5C520.1,112.4,517.9,113.2,515,113.1z M515.5,109c0.5,0,0.8-0.1,1.2-0.2c0.3-0.2,0.6-0.4,0.7-0.8
	c0.2-0.3,0.3-0.7,0.4-1c0.1-0.3,0.2-0.7,0.2-1.2l1.5-12.7c0-0.5,0.1-0.9,0.1-1.3c0-0.1,0-0.2,0-0.3c0-0.5-0.2-0.9-0.4-1.2
	c-0.3-0.3-0.7-0.5-1.3-0.5c-0.5,0-0.8,0.1-1.1,0.2c-0.3,0.2-0.6,0.4-0.7,0.8c-0.2,0.3-0.3,0.7-0.4,1c-0.1,0.3-0.2,0.7-0.2,1.2
	l-1.5,12.7c-0.1,0.5-0.1,1-0.1,1.4c0,0,0,0.1,0,0.2c0,0.5,0.1,0.9,0.4,1.2S514.9,109,515.5,109z M517,83.7l2.8-6.6l5.4,0.1l-5,6.6
	L517,83.7z M529.5,113.1l5.5-26.3l4.1,0.4l2.9,13.4l2.7-12.9l4.8,0.5l-5.5,26.3l-3.9-0.4l-2.7-14.4l-3,13.9L529.5,113.1z
	 M561.1,117.3l9-25.3l6.5,1.6c1.7,0.4,3,0.9,4.1,1.5c1,0.6,1.7,1.3,2.2,2.1c0.4,0.8,0.6,1.7,0.5,2.8c0,0.5-0.1,1.1-0.3,1.8
	c-0.1,0.6-0.3,1.3-0.6,2l-3.2,9.1c-0.5,1.5-1.1,2.7-1.7,3.6c-0.6,0.9-1.4,1.7-2.3,2.2c-0.9,0.5-2,0.8-3.2,0.9
	c-1.2,0-2.6-0.1-4.3-0.5L561.1,117.3z M568.1,114.9l0.9,0.2c0.5,0.1,1,0.2,1.4,0.2s0.7-0.1,1-0.2s0.5-0.3,0.7-0.6s0.4-0.6,0.5-0.9
	s0.3-0.8,0.5-1.3l3.8-10.7c0.2-0.5,0.3-0.9,0.4-1.2c0.1-0.3,0.1-0.5,0.1-0.7c0.1-0.5-0.1-0.9-0.4-1.3c-0.3-0.3-0.9-0.6-1.8-0.8
	l-0.9-0.2L568.1,114.9z M582.3,122.8l11.1-24.5l11.3,3.7l-1.6,3.6l-5.8-1.9l-2.8,6.1l4.4,1.5l-1.7,3.7l-4.5-1.5l-3.3,7.4l5.9,1.9
	l-1.6,3.6L582.3,122.8z M608.8,132.5l14.2-22.8l6,2.9c1.6,0.8,2.8,1.5,3.6,2.3s1.4,1.6,1.7,2.5s0.2,1.8-0.1,2.8
	c-0.2,0.5-0.4,1.1-0.7,1.7s-0.6,1.2-1,1.8l-5.1,8.2c-0.8,1.3-1.6,2.4-2.5,3.2s-1.7,1.3-2.7,1.6s-2.1,0.4-3.3,0.2s-2.6-0.7-4.1-1.4
	L608.8,132.5z M616.2,131.6l0.9,0.4c0.5,0.2,0.9,0.4,1.3,0.5c0.4,0.1,0.7,0.1,1,0s0.6-0.2,0.8-0.5c0.3-0.3,0.5-0.5,0.7-0.8
	s0.5-0.7,0.8-1.2l6-9.7c0.3-0.4,0.5-0.8,0.6-1.1c0.1-0.2,0.2-0.5,0.3-0.7c0.2-0.5,0.1-0.9-0.1-1.3c-0.3-0.4-0.8-0.8-1.6-1.2
	l-0.8-0.4L616.2,131.6z M634.6,146.5c-1.3-0.8-2.2-1.6-2.9-2.4c-0.7-0.9-1-1.8-1.1-2.7c0-0.9,0.1-1.9,0.5-2.9c0.2-0.5,0.5-1,0.8-1.6
	c0.3-0.5,0.7-1,1.1-1.6l6-7.9c1.8-2.3,3.6-3.7,5.6-4.3c1.9-0.5,4.2-0.1,6.6,1.4c2.5,1.5,3.8,3.2,3.9,5c0.1,1.4-0.3,3-1.4,4.7
	c-0.3,0.5-0.6,1-1,1.5l-6,7.9c-1.8,2.3-3.6,3.7-5.6,4.3C639.3,148.5,637.1,148,634.6,146.5z M637.2,143.2c0.4,0.2,0.8,0.4,1.1,0.4
	c0.4,0,0.7-0.1,1-0.3s0.6-0.4,0.8-0.7c0.2-0.2,0.5-0.6,0.8-0.9l7.8-10.2c0.3-0.4,0.5-0.7,0.7-1c0-0.1,0.1-0.2,0.2-0.2
	c0.2-0.4,0.3-0.8,0.2-1.3s-0.4-0.8-0.9-1.1c-0.4-0.2-0.8-0.4-1.1-0.4s-0.7,0.1-1,0.3c-0.3,0.2-0.6,0.4-0.8,0.7
	c-0.2,0.2-0.5,0.5-0.8,0.9l-7.8,10.2c-0.3,0.4-0.6,0.8-0.8,1.2l-0.1,0.1c-0.3,0.4-0.3,0.8-0.3,1.3
	C636.4,142.5,636.6,142.9,637.2,143.2z M647,153.9l18.3-19.7l3.3,2.4l-4.5,13l8.9-9.6l3.9,2.9l-18.3,19.7l-3.1-2.3l5.1-13.7
	l-9.6,10.3L647,153.9z M675,138.6l-0.1-0.1c-0.4-0.2-0.7-0.6-1-1.1c-0.3-0.6-0.6-1.1-0.9-1.7s-0.5-0.9-0.8-1.1
	c-0.5-0.4-1-0.2-1.6,0.5l-2-1.5c0.5-0.5,0.9-1,1.3-1.3c0.4-0.3,0.8-0.6,1.3-0.8c0.4-0.2,0.9-0.3,1.4-0.2s0.9,0.2,1.4,0.5
	c0.1,0,0.2,0.1,0.2,0.2c0.4,0.3,0.7,0.7,1,1.1c0.3,0.5,0.6,1,0.8,1.5s0.4,0.8,0.5,0.9c0.2,0.2,0.5,0.3,0.8,0.2s0.5-0.3,0.8-0.6
	l1.9,1.4c-0.4,0.5-0.8,0.8-1.2,1.2s-0.8,0.6-1.2,0.9s-0.9,0.4-1.3,0.4S675.4,138.9,675,138.6z M662.8,165.9l23.8-14.4l4.8,4.4
	l-16.3,21.3l-4-3.6l3.6-4.5l-2.9-2.7l-5,3.2L662.8,165.9z M674.8,164.4l2.2,2l6.7-7.9L674.8,164.4z"/>
</svg>
